<svg xmlns="http://www.w3.org/2000/svg" width="17" height="16.812" viewBox="0 0 17 16.812">
  <defs>
    <style>
      .cls-1 {
        fill: #2dafe5;
        fill-rule: evenodd;
      }
    </style>
  </defs>
  <path id="Fill_1" data-name="Fill 1" class="cls-1" d="M13702.1,468.772a5.026,5.026,0,1,1,0,10.038,5.022,5.022,0,1,1,0-10.038m9.6,13.547-4.2-4.162a6.514,6.514,0,0,0,1.7-4.367,7.107,7.107,0,1,0-7.1,6.792,7.277,7.277,0,0,0,4.1-1.23l4.2,4.2a0.944,0.944,0,0,0,1.3.024,0.8,0.8,0,0,0,0-1.253" transform="translate(-13695 -467)"/>
</svg>
